<svg width="245" height="60" viewBox="0 0 245 60" fill="none" xmlns="http://www.w3.org/2000/svg">
<mask id="mask0_611_380" style="mask-type:luminance" maskUnits="userSpaceOnUse" x="0" y="0" width="61" height="60">
<rect width="60.0417" height="60" rx="10" fill="white"/>
</mask>
<g mask="url(#mask0_611_380)">
<rect width="60.0417" height="60" fill="#F4F6FC"/>
</g>
<g clip-path="url(#clip0_611_380)">
<mask id="mask1_611_380" style="mask-type:luminance" maskUnits="userSpaceOnUse" x="4" y="8" width="57" height="43">
<path d="M60.0414 8.4375H4.69043V50.625H60.0414V8.4375Z" fill="white"/>
</mask>
<g mask="url(#mask1_611_380)">
<path d="M24.8596 34.6438L32.1206 22.0179L35.3766 27.6728C37.7249 26.4435 39.9435 25.6191 41.9317 25.4745L32.1062 8.4375L12.3545 42.8007C16.0426 41.152 20.4079 37.8979 24.8596 34.6438Z" fill="#232327"/>
<mask id="mask2_611_380" style="mask-type:luminance" maskUnits="userSpaceOnUse" x="38" y="29" width="12" height="12">
<path d="M49.7832 29.9868H38.3154V40.2119H49.7832V29.9868Z" fill="white"/>
</mask>
<g mask="url(#mask2_611_380)">
<path d="M38.4014 32.9516L42.5073 40.0816H50.3302L44.5963 30.1313C42.7954 30.4785 40.692 31.5198 38.4014 32.9516Z" fill="#232327"/>
</g>
<mask id="mask3_611_380" style="mask-type:luminance" maskUnits="userSpaceOnUse" x="4" y="27" width="46" height="24">
<path d="M49.7837 27.6729H4.69043V50.625H49.7837V27.6729Z" fill="white"/>
</mask>
<g mask="url(#mask3_611_380)">
<path d="M50.3164 37.3337C44.5104 5.51591 7.22565 64.885 2.62988 39.7634C8.79599 73.5337 46.3113 15.3939 50.3164 37.3337Z" fill="#FF3901"/>
</g>
</g>
</g>
<g clip-path="url(#clip1_611_380)">
<path d="M82.785 19.8379H84.701L92.9889 38.0778H90.7815L88.6561 33.29H78.7525L76.5998 38.0778H74.4971L82.785 19.8379ZM87.8505 31.4583L83.7134 22.2182L79.5581 31.4583H87.846H87.8505Z" fill="#232327"/>
<path d="M101.372 24.703H103.366V27.0289C103.821 26.308 104.412 25.6914 105.141 25.1881C105.864 24.6758 106.811 24.4219 107.967 24.4219C108.782 24.4219 109.505 24.5534 110.138 24.8073C110.77 25.0657 111.308 25.4375 111.749 25.9135C112.19 26.3851 112.527 26.9518 112.764 27.6047C112.996 28.2621 113.114 28.983 113.114 29.7764V38.078H111.112V30.2661C111.112 29.0283 110.789 28.0445 110.142 27.319C109.501 26.5981 108.586 26.2309 107.393 26.2309C106.825 26.2309 106.287 26.3306 105.791 26.5347C105.3 26.7296 104.867 27.0153 104.503 27.387C104.144 27.7543 103.862 28.1986 103.661 28.72C103.466 29.2369 103.366 29.8036 103.366 30.4202V38.0825H101.372V24.703Z" fill="#232327"/>
<path d="M128.452 42.2744C127.328 42.2744 126.254 42.1157 125.23 41.8029C124.211 41.4946 123.25 41.0321 122.349 40.4155L123.259 38.8559C124.038 39.409 124.848 39.8306 125.694 40.1208C126.55 40.4155 127.46 40.5651 128.425 40.5651C129.918 40.5651 131.101 40.1616 131.98 39.3546C132.863 38.5521 133.309 37.3687 133.309 35.8045V34.2267C132.722 35.002 131.998 35.6685 131.147 36.2217C130.3 36.7703 129.263 37.0423 128.038 37.0423C127.224 37.0423 126.436 36.8972 125.685 36.607C124.93 36.3123 124.261 35.8952 123.674 35.3511C123.086 34.8116 122.613 34.1542 122.249 33.388C121.894 32.6217 121.717 31.7558 121.717 30.79V30.7311C121.717 29.7473 121.894 28.8722 122.249 28.0969C122.609 27.3171 123.082 26.6551 123.674 26.1111C124.261 25.5715 124.934 25.1544 125.694 24.8642C126.459 24.5695 127.242 24.4199 128.038 24.4199C128.666 24.4199 129.24 24.4925 129.763 24.6375C130.296 24.7826 130.769 24.9776 131.197 25.2224C131.62 25.4627 132.002 25.7484 132.344 26.0748C132.69 26.4012 133.004 26.7503 133.281 27.1131V24.7056H135.284V35.7456C135.284 36.7839 135.134 37.6952 134.838 38.475C134.547 39.2594 134.123 39.9304 133.568 40.4881C132.967 41.0911 132.235 41.5399 131.37 41.8301C130.501 42.1248 129.531 42.2744 128.457 42.2744H128.452ZM128.425 35.2831C129.062 35.2831 129.677 35.1789 130.264 34.9612C130.856 34.7481 131.383 34.4398 131.839 34.0363C132.298 33.6283 132.667 33.1477 132.94 32.5991C133.218 32.0459 133.359 31.4339 133.359 30.7583V30.6994C133.359 30.0148 133.218 29.3936 132.94 28.8495C132.667 28.2964 132.298 27.8203 131.839 27.4214C131.383 27.0224 130.856 26.7186 130.264 26.5055C129.677 26.2879 129.062 26.1745 128.425 26.1745C127.788 26.1745 127.187 26.2834 126.623 26.5055C126.058 26.7186 125.562 27.0224 125.135 27.4123C124.711 27.7977 124.379 28.2692 124.138 28.8178C123.897 29.3664 123.778 29.9875 123.778 30.6767V30.722C123.778 31.3976 123.901 32.0142 124.147 32.5719C124.397 33.1341 124.739 33.6101 125.162 34.0091C125.585 34.4081 126.077 34.7164 126.641 34.9431C127.201 35.1653 127.797 35.2741 128.425 35.2741V35.2831Z" fill="#232327"/>
<path d="M150.754 38.3889C149.83 38.3889 148.96 38.2211 148.146 37.8901C147.336 37.5501 146.63 37.074 146.02 36.462C145.415 35.8544 144.932 35.1199 144.577 34.263C144.222 33.4061 144.045 32.4631 144.045 31.4293V31.384C144.045 30.4137 144.2 29.507 144.518 28.6637C144.841 27.8203 145.287 27.0859 145.856 26.4511C146.43 25.8209 147.112 25.3267 147.895 24.9685C148.683 24.6058 149.547 24.4199 150.485 24.4199C151.473 24.4199 152.351 24.6058 153.129 24.9776C153.912 25.3494 154.572 25.8526 155.109 26.4874C155.646 27.1267 156.051 27.8702 156.324 28.7271C156.602 29.5795 156.743 30.4999 156.743 31.4837V31.8147C156.743 31.9054 156.734 32.0097 156.725 32.1275H146.075C146.143 32.853 146.316 33.4968 146.589 34.0545C146.867 34.6167 147.217 35.0927 147.64 35.4826C148.064 35.868 148.542 36.1582 149.083 36.3622C149.62 36.5572 150.194 36.6569 150.799 36.6569C151.732 36.6569 152.533 36.4846 153.198 36.1446C153.867 35.8 154.481 35.3375 155.036 34.7663L156.279 35.8816C155.601 36.6433 154.831 37.2554 153.967 37.7133C153.097 38.1667 152.028 38.3934 150.754 38.3934V38.3889ZM154.727 30.654C154.668 30.051 154.54 29.4752 154.34 28.9266C154.144 28.3735 153.867 27.8884 153.516 27.4712C153.161 27.0541 152.729 26.7231 152.219 26.4783C151.714 26.2289 151.122 26.102 150.444 26.102C149.857 26.102 149.311 26.2199 148.806 26.4511C148.305 26.6869 147.863 27.0042 147.477 27.4168C147.099 27.8203 146.785 28.3009 146.548 28.8541C146.307 29.4027 146.152 30.0057 146.084 30.6586H154.731L154.727 30.654Z" fill="#232327"/>
<path d="M165.577 19.1948H167.58V38.0785H165.577V19.1948Z" fill="#232327"/>
<path d="M178.116 26.4583H176.277V24.7308H178.116V23.5611C178.116 22.0468 178.503 20.8952 179.281 20.1244C179.978 19.4398 180.938 19.0952 182.162 19.0952C182.631 19.0952 183.031 19.1224 183.368 19.1723C183.71 19.2222 184.042 19.3083 184.374 19.4262V21.1627C184.015 21.0584 183.682 20.9722 183.386 20.9178C183.086 20.8544 182.772 20.8226 182.431 20.8226C180.87 20.8226 180.087 21.7702 180.087 23.6654V24.7535H184.342V26.4628H180.114V38.0832H178.112V26.4628L178.116 26.4583Z" fill="#232327"/>
<path d="M192.216 19.1948H194.218V38.0785H192.216V19.1948Z" fill="#232327"/>
<path d="M210.135 38.3866C209.129 38.3866 208.205 38.2007 207.358 37.8289C206.512 37.4571 205.775 36.9584 205.151 36.3282C204.523 35.698 204.036 34.9635 203.69 34.1292C203.349 33.295 203.176 32.4018 203.176 31.4542V31.3953C203.176 30.4522 203.349 29.5591 203.69 28.7112C204.036 27.8588 204.523 27.1198 205.151 26.4805C205.779 25.8458 206.516 25.3425 207.372 24.9708C208.232 24.599 209.17 24.4131 210.189 24.4131C211.209 24.4131 212.124 24.599 212.979 24.9708C213.839 25.3425 214.581 25.8458 215.209 26.4715C215.837 27.1017 216.32 27.8362 216.661 28.6704C217.007 29.5001 217.185 30.3933 217.185 31.3454V31.3908C217.185 32.3429 217.007 33.2406 216.652 34.0839C216.297 34.9272 215.81 35.6708 215.182 36.3146C214.563 36.9538 213.821 37.4571 212.952 37.8244C212.083 38.1961 211.15 38.382 210.144 38.382L210.135 38.3866ZM210.18 36.6002C210.904 36.6002 211.573 36.4642 212.183 36.1831C212.788 35.9065 213.307 35.5347 213.739 35.0677C214.176 34.6008 214.513 34.0612 214.754 33.4446C215 32.8189 215.123 32.157 215.123 31.4497V31.3908C215.123 30.6699 214.995 29.9898 214.745 29.3596C214.49 28.7294 214.14 28.1808 213.694 27.7047C213.243 27.2332 212.715 26.8614 212.11 26.5803C211.505 26.3037 210.845 26.1632 210.139 26.1632C209.434 26.1632 208.747 26.3037 208.137 26.5803C207.531 26.8569 207.013 27.2286 206.589 27.6956C206.166 28.1626 205.829 28.7112 205.583 29.3414C205.342 29.9716 205.224 30.6381 205.224 31.3454V31.3908C205.224 32.1162 205.351 32.7917 205.602 33.4219C205.852 34.0522 206.198 34.6008 206.635 35.0677C207.076 35.5347 207.604 35.9065 208.209 36.1831C208.815 36.4597 209.475 36.6002 210.18 36.6002Z" fill="#232327"/>
<path d="M224.775 24.7028H226.91L230.437 35.4436L234.051 24.6484H235.712L239.353 35.4436L242.88 24.7028H244.956L240.232 38.1821H238.488L234.884 27.6227L231.243 38.1821H229.477L224.775 24.7028Z" fill="#232327"/>
</g>
<defs>
<clipPath id="clip0_611_380">
<rect width="55.3509" height="42.1875" fill="white" transform="translate(4.69043 8.4375)"/>
</clipPath>
<clipPath id="clip1_611_380">
<rect width="170.455" height="23.1818" fill="white" transform="translate(74.4971 19.0908)"/>
</clipPath>
</defs>
</svg>
