<svg width="80" height="80" viewBox="0 0 80 80" fill="none" xmlns="http://www.w3.org/2000/svg">
<rect x="0.5" y="0.5" width="79" height="79" rx="11.5" fill="#FCFCFC" stroke="#E3E4E5"/>
<path fill-rule="evenodd" clip-rule="evenodd" d="M45.5351 26.6561C46.8333 24.93 47.8174 22.4903 47.4615 20C45.3397 20.1519 42.8597 21.5501 41.4126 23.3727C40.0935 25.024 39.0094 27.4806 39.4328 29.8648C41.7523 29.9396 44.1462 28.5075 45.5351 26.6561ZM57 50.0814C56.0717 52.2125 55.6251 53.1648 54.4293 55.0524C52.7612 57.6873 50.4091 60.9684 47.4917 60.9925C44.9023 61.0214 44.2346 59.2447 40.7193 59.2664C37.2041 59.2857 36.4712 61.0262 33.8772 60.9997C30.9621 60.9732 28.7334 58.0128 27.0653 55.3778C22.3984 48.0154 21.9075 39.3728 24.7853 34.7755C26.8326 31.5114 30.0618 29.602 33.0955 29.602C36.1827 29.602 38.1253 31.3571 40.6821 31.3571C43.1621 31.3571 44.672 29.5972 48.2432 29.5972C50.9465 29.5972 53.8104 31.1232 55.8484 33.7558C49.1668 37.5503 50.2486 47.4368 57 50.0814Z" fill="#ADADAD"/>
</svg>
