<svg width="15" height="16" viewBox="0 0 15 16" fill="none" xmlns="http://www.w3.org/2000/svg">
<path d="M4.72243 7.2H3.1538V8.8H4.72243V7.2ZM7.85968 7.2H6.29106V8.8H7.85968V7.2ZM10.9969 7.2H9.42831V8.8H10.9969V7.2ZM12.5656 1.6H11.7813V0H10.2126V1.6H3.93812V0H2.36949V1.6H1.58518C0.714587 1.6 0.0243911 2.32 0.0243911 3.2L0.0165479 14.4C0.0165479 15.28 0.714587 16 1.58518 16H12.5656C13.4283 16 14.1342 15.28 14.1342 14.4V3.2C14.1342 2.32 13.4283 1.6 12.5656 1.6ZM12.5656 14.4H1.58518V5.17647H7.07537H12.5656V14.4Z" fill="#787878"/>
</svg>
