<svg width="19" height="19" viewBox="0 0 19 19" fill="none" xmlns="http://www.w3.org/2000/svg">
<circle cx="9.5" cy="9.5" r="9.5" fill="#FF3901"/>
<path d="M13 11.1874C13 11.6263 12.8801 12.0469 12.6403 12.4491C12.4004 12.8423 12.0457 13.1714 11.576 13.4366C11.1163 13.7017 10.5617 13.8526 9.91221 13.8891V15H9.10278V13.8891C8.19343 13.816 7.45396 13.5509 6.88437 13.0937C6.31478 12.6274 6.02498 12.0377 6.01499 11.3246H7.46895C7.50892 11.7086 7.66381 12.0423 7.93362 12.3257C8.21342 12.6091 8.60314 12.7874 9.10278 12.8606V9.432C8.43326 9.27657 7.89365 9.11657 7.48394 8.952C7.07423 8.78743 6.72448 8.53143 6.43469 8.184C6.1449 7.83657 6 7.37029 6 6.78514C6 6.04457 6.2798 5.432 6.8394 4.94743C7.40899 4.46286 8.16345 4.19314 9.10278 4.13829V3H9.91221V4.13829C10.7616 4.20229 11.4461 4.45371 11.9657 4.89257C12.4854 5.32229 12.7852 5.88457 12.8651 6.57943H11.4111C11.3612 6.25943 11.2063 5.97143 10.9465 5.71543C10.6867 5.45029 10.3419 5.27657 9.91221 5.19429V8.54057C10.5717 8.696 11.1064 8.856 11.5161 9.02057C11.9358 9.176 12.2855 9.42743 12.5653 9.77486C12.8551 10.1223 13 10.5931 13 11.1874ZM7.394 6.71657C7.394 7.16457 7.5389 7.50743 7.82869 7.74514C8.11849 7.98286 8.54318 8.17943 9.10278 8.33486V5.16686C8.58315 5.21257 8.16845 5.368 7.85867 5.63314C7.54889 5.88914 7.394 6.25029 7.394 6.71657ZM9.91221 12.8743C10.4518 12.8194 10.8715 12.6411 11.1713 12.3394C11.4811 12.0377 11.636 11.6766 11.636 11.256C11.636 10.808 11.4861 10.4651 11.1863 10.2274C10.8865 9.98057 10.4618 9.784 9.91221 9.63771V12.8743Z" fill="white"/>
</svg>
