<svg width="99" height="99" viewBox="0 0 99 99" fill="none" xmlns="http://www.w3.org/2000/svg">
<path d="M26.6157 39.0528C23.0338 39.4509 20.248 42.6348 20.6458 46.4157C21.0439 49.9977 24.2278 52.7835 28.0087 52.3856C31.5907 51.9876 34.3765 48.8037 33.9786 45.0227C33.5808 41.2418 30.1977 38.655 26.6157 39.0528ZM44.7243 50.5946L35.1724 62.3354C34.7744 62.7334 34.1775 62.9322 33.7794 62.5344L31.5905 60.7435C31.1924 60.3455 30.3965 60.5445 30.1975 60.9425L19.8497 73.6783C19.4516 74.0763 19.4516 74.8723 20.0487 75.0713C19.8497 75.2703 20.2478 75.2703 20.4468 75.2703L61.6388 70.8925C62.2357 70.8925 62.6338 70.2956 62.6338 69.6985C62.6338 69.4994 62.4347 69.3004 62.4347 69.1016L46.3161 50.396C45.7192 50.1969 45.1223 50.1965 44.7243 50.5946Z" stroke="url(#paint0_linear_373_4855)" stroke-width="2" stroke-linecap="round" stroke-linejoin="round"/>
<path d="M33.5801 28.506L34.9731 15.9693C35.1721 14.3773 36.5651 13.1833 38.157 13.3823L87.1098 18.5561C88.7018 18.7551 89.8958 20.1482 89.6968 21.74L84.523 70.6928C84.523 72.0858 82.931 73.2798 81.3391 73.2798L68.6034 71.8868" stroke="#B4B4B4" stroke-width="2" stroke-linecap="round" stroke-linejoin="round"/>
<path d="M67.6091 61.7383L78.5537 62.9322C79.1506 62.9322 79.5487 62.5342 79.7477 61.9373C79.7477 61.7383 79.7477 61.5392 79.5487 61.3404L67.6089 39.6499C67.4098 39.2518 66.6139 39.053 66.2158 39.2519L65.4199 40.0478" stroke="url(#paint1_linear_373_4855)" stroke-width="2" stroke-linecap="round" stroke-linejoin="round"/>
<path d="M60.8428 25.5212C62.4348 25.3221 64.0266 26.5161 64.0266 28.1082L69.2004 77.26C69.3995 78.8521 68.2055 80.4439 66.6134 80.4439L17.6606 85.6177C16.0686 85.8167 14.4767 84.6227 14.4767 83.0307L9.30296 34.0779C9.10392 32.4858 10.2979 30.894 11.8899 30.894L60.8428 25.5212Z" stroke="#B4B4B4" stroke-width="2" stroke-linecap="round" stroke-linejoin="round"/>
<defs>
<linearGradient id="paint0_linear_373_4855" x1="41.103" y1="39.0125" x2="41.103" y2="75.2703" gradientUnits="userSpaceOnUse">
<stop stop-color="#FF4916" stop-opacity="0.55"/>
<stop offset="1" stop-color="#FF4916" stop-opacity="0.36"/>
</linearGradient>
<linearGradient id="paint1_linear_373_4855" x1="72.5838" y1="39.1739" x2="72.5838" y2="62.9322" gradientUnits="userSpaceOnUse">
<stop stop-color="#FF4916" stop-opacity="0.55"/>
<stop offset="1" stop-color="#FF4916" stop-opacity="0.36"/>
</linearGradient>
</defs>
</svg>
