<svg width="80" height="80" viewBox="0 0 80 80" fill="none" xmlns="http://www.w3.org/2000/svg">
<rect x="0.5" y="0.5" width="79" height="79" rx="11.5" fill="#FCFCFC" stroke="#E3E4E5"/>
<path fill-rule="evenodd" clip-rule="evenodd" d="M28.3983 39.5C28.3983 38.1684 28.6194 36.8918 29.0141 35.6944L22.1052 30.4185C20.7586 33.1524 20 36.233 20 39.5C20 42.7641 20.7577 45.8428 22.1024 48.5749L29.0076 43.2887C28.6166 42.0969 28.3983 40.825 28.3983 39.5Z" fill="#FBBC05"/>
<path fill-rule="evenodd" clip-rule="evenodd" d="M40.5294 27.3864C43.4222 27.3864 46.035 28.4114 48.0879 30.0886L54.06 24.125C50.4207 20.9568 45.755 19 40.5294 19C32.4167 19 25.4443 23.6395 22.1055 30.4185L29.0145 35.6945C30.6064 30.862 35.1443 27.3864 40.5294 27.3864Z" fill="#EB4335"/>
<path fill-rule="evenodd" clip-rule="evenodd" d="M40.5294 51.6138C35.1443 51.6138 30.6064 48.1381 29.0145 43.3057L22.1055 48.5807C25.4443 55.3606 32.4167 60.0001 40.5294 60.0001C45.5367 60.0001 50.3171 58.2222 53.9051 54.891L47.347 49.8209C45.4965 50.9866 43.1665 51.6138 40.5294 51.6138Z" fill="#34A853"/>
<path fill-rule="evenodd" clip-rule="evenodd" d="M60.1243 39.5C60.1243 38.2886 59.9377 36.9841 59.6577 35.7727H40.5283V43.6932H51.5394C50.9888 46.3936 49.4902 48.4697 47.3459 49.8208L53.904 54.8908C57.6729 51.3928 60.1243 46.182 60.1243 39.5Z" fill="#4285F4"/>
</svg>
