<svg width="19" height="19" viewBox="0 0 19 19" fill="none" xmlns="http://www.w3.org/2000/svg">
<circle cx="9.5" cy="9.5" r="9.5" fill="#FF7B01"/>
<g clip-path="url(#clip0_298_7051)">
<path d="M7.47129 4.50004C8.08457 4.09769 8.58848 4.05863 9.14317 4.35941C9.88145 4.76176 10.151 5.68754 9.74864 6.42582C9.34629 7.1641 8.43614 7.39848 7.67832 7.03519C6.70567 6.57035 6.2252 5.57035 6.19785 4.83207C6.65098 4.94144 7.08067 4.75394 7.47129 4.50004ZM14.9205 10.3008C14.9205 9.80863 14.733 9.50394 14.5689 9.23441C14.2057 8.64066 13.4322 7.66801 13.0494 7.17582L14.0611 5.68363H11.2604L12.2682 7.17191C11.8854 7.6641 11.108 8.64066 10.7447 9.23441C10.5963 9.47269 10.4361 9.74223 10.401 10.1485H9.52207C9.52207 10.1485 8.65879 8.14457 8.64317 8.11723C8.39317 7.62504 7.99082 7.33207 7.45567 7.33207C6.6666 7.33207 6.07285 8.01566 5.79942 8.75785C5.30723 10.0664 5.04942 12.4922 5.08067 13.836H9.07676V12.0664H9.03379C8.49473 12.0664 8.01035 11.7461 7.79942 11.2539L7.25254 9.98832C7.20957 9.89066 7.25645 9.77738 7.3541 9.73441C7.45176 9.69144 7.56504 9.73832 7.60801 9.83598L8.15489 11.1016C8.30723 11.4532 8.65489 11.6836 9.0377 11.6836H13.7877C14.4244 11.5938 14.9205 11.0079 14.9205 10.3008ZM12.7682 10.4844V10.7618H12.4596V10.7266V10.4727C12.2994 10.4375 12.1549 10.3594 12.0182 10.2344L12.2447 9.98051C12.2447 9.98051 12.4127 10.125 12.5689 10.1485C12.7486 10.1758 12.858 10.0899 12.8697 9.9766C12.8932 9.76566 12.4791 9.68363 12.3307 9.60551C12.151 9.51176 11.9752 9.37894 11.9752 9.10551C11.9752 8.82426 12.1705 8.62113 12.4635 8.59379V8.33598V8.30082H12.7682V8.60551C12.9557 8.64848 13.0846 8.74613 13.1861 8.82426L12.9791 9.09379C12.9127 9.03519 12.7955 8.96098 12.6822 8.93363C12.5377 8.89848 12.3814 8.93754 12.3697 9.09769C12.3658 9.1641 12.3932 9.2891 12.7057 9.38676C12.8736 9.43754 13.2604 9.55473 13.2604 9.95707C13.2643 10.2305 13.0533 10.4493 12.7682 10.4844Z" fill="white"/>
</g>
<defs>
<clipPath id="clip0_298_7051">
<rect width="10" height="10" fill="white" transform="translate(5 4)"/>
</clipPath>
</defs>
</svg>
