<svg width="80" height="80" viewBox="0 0 80 80" fill="none" xmlns="http://www.w3.org/2000/svg">
<rect x="0.5" y="0.5" width="79" height="79" rx="11.5" fill="#FCFCFC" stroke="#E3E4E5"/>
<path d="M57.6391 19.0038H22.5962C22.1445 18.9826 21.6931 19.0507 21.2677 19.2042C20.8424 19.3578 20.4516 19.5937 20.1175 19.8984C19.7835 20.2032 19.5128 20.5708 19.3211 20.9803C19.1293 21.3898 19.0202 21.833 19 22.2847V57.4041C19.0265 58.3493 19.4138 59.2488 20.0826 59.9173C20.7514 60.5861 21.6508 60.9735 22.5962 61H57.6391C58.5581 60.9591 59.4246 60.5596 60.0527 59.8874C60.6809 59.2152 61.0206 58.3238 60.999 57.4041V22.2847C61.0066 21.8451 60.9242 21.4085 60.757 21.0019C60.5898 20.5952 60.3412 20.227 60.0265 19.9198C59.712 19.6126 59.338 19.3729 58.9274 19.2153C58.5169 19.0578 58.0785 18.9858 57.6391 19.0038ZM32.1247 54.0181H26.0086V35.3036H32.1247V54.0181ZM29.211 32.4688C28.7842 32.4837 28.359 32.4101 27.962 32.2528C27.5649 32.0955 27.2047 31.8577 26.904 31.5546C26.6033 31.2514 26.3685 30.8893 26.2144 30.491C26.0603 30.0928 25.9902 29.667 26.0086 29.2403C25.9897 28.8091 26.0612 28.3787 26.2185 27.9767C26.3757 27.5747 26.6153 27.21 26.9217 26.906C27.2282 26.602 27.5948 26.3655 27.9981 26.2115C28.4014 26.0575 28.8324 25.9895 29.2635 26.0119C29.6903 25.997 30.1156 26.0705 30.5126 26.2279C30.9096 26.3852 31.2698 26.6229 31.5705 26.9261C31.8712 27.2293 32.106 27.5914 32.2601 27.9896C32.4142 28.3879 32.4843 28.8137 32.4659 29.2403C32.4848 29.6716 32.4133 30.102 32.2561 30.504C32.0988 30.906 31.8593 31.2707 31.5528 31.5746C31.2463 31.8786 30.8797 32.1152 30.4764 32.2692C30.0731 32.4232 29.6421 32.4911 29.211 32.4688ZM54.0167 54.0181H47.8743V43.7816C47.8743 41.3405 47.0081 39.6607 44.8294 39.6607C44.1527 39.6665 43.4941 39.8814 42.9444 40.2762C42.3945 40.671 41.9803 41.2261 41.7582 41.8655C41.5876 42.3448 41.5162 42.8537 41.5482 43.3616V54.0181H35.5109V35.3036H41.5482V37.9284C42.085 36.9422 42.8838 36.1238 43.8566 35.5632C44.8294 35.0028 45.9382 34.7222 47.0606 34.7523C51.0243 34.7523 54.0167 37.3772 54.0167 42.9679V54.0181Z" fill="#1877F2"/>
</svg>
