<svg width="32" height="32" viewBox="0 0 32 32" fill="none" xmlns="http://www.w3.org/2000/svg">
<g clip-path="url(#clip0_446_7945)">
<path d="M10 22C11.0609 22 12.0783 21.5786 12.8284 20.8284C13.5786 20.0783 14 19.0609 14 18C14 16.9391 13.5786 15.9217 12.8284 15.1716C12.0783 14.4214 11.0609 14 10 14C8.93913 14 7.92172 14.4214 7.17157 15.1716C6.42143 15.9217 6 16.9391 6 18C6 19.0609 6.42143 20.0783 7.17157 20.8284C7.92172 21.5786 8.93913 22 10 22ZM10 16C10.5304 16 11.0391 16.2107 11.4142 16.5858C11.7893 16.9609 12 17.4696 12 18C12 18.5304 11.7893 19.0391 11.4142 19.4142C11.0391 19.7893 10.5304 20 10 20C9.46957 20 8.96086 19.7893 8.58578 19.4142C8.21071 19.0391 8 18.5304 8 18C8 17.4696 8.21071 16.9609 8.58578 16.5858C8.96086 16.2107 9.46957 16 10 16ZM15 24H5C4.34339 24 3.69321 24.1293 3.08658 24.3806C2.47995 24.6319 1.92876 25.0002 1.46447 25.4645C1.00017 25.9288 0.631877 26.48 0.380604 27.0866C0.12933 27.6932 0 28.3434 0 29C0 29.7956 0.316072 30.5587 0.878681 31.1213C1.44129 31.6839 2.20435 32 3 32H17C17.7956 32 18.5587 31.6839 19.1213 31.1213C19.6839 30.5587 20 29.7956 20 29C20 27.6739 19.4732 26.4021 18.5355 25.4645C17.5979 24.5268 16.3261 24 15 24ZM17 30H3C2.73478 30 2.48043 29.8946 2.29289 29.7071C2.10536 29.5196 2 29.2652 2 29C2 28.2044 2.31607 27.4413 2.87868 26.8787C3.44129 26.3161 4.20435 26 5 26H15C15.7956 26 16.5587 26.3161 17.1213 26.8787C17.6839 27.4413 18 28.2044 18 29C18 29.2652 17.8946 29.5196 17.7071 29.7071C17.5196 29.8946 17.2652 30 17 30ZM32 5V15C32 16.3261 31.4732 17.5979 30.5355 18.5355C29.5979 19.4732 28.3261 20 27 20H21.414L17.708 23.708C17.615 23.8008 17.5045 23.8744 17.3831 23.9245C17.2616 23.9746 17.1314 24.0002 17 24C16.8689 24.0005 16.739 23.9747 16.618 23.924C16.4351 23.8484 16.2788 23.7203 16.1688 23.5558C16.0588 23.3913 16 23.1979 16 23V19C16 18.7348 16.1054 18.4804 16.2929 18.2929C16.4804 18.1054 16.7348 18 17 18C17.2652 18 17.5196 18.1054 17.7071 18.2929C17.8946 18.4804 18 18.7348 18 19V20.586L20.292 18.292C20.385 18.1992 20.4955 18.1256 20.6169 18.0755C20.7384 18.0254 20.8686 17.9998 21 18H27C27.7956 18 28.5587 17.6839 29.1213 17.1213C29.6839 16.5587 30 15.7956 30 15V5C30 4.20435 29.6839 3.44129 29.1213 2.87868C28.5587 2.31607 27.7956 2 27 2H13C12.2044 2 11.4413 2.31607 10.8787 2.87868C10.3161 3.44129 10 4.20435 10 5V11C10 11.2652 9.89464 11.5196 9.70711 11.7071C9.51957 11.8946 9.26522 12 9 12C8.73478 12 8.48043 11.8946 8.29289 11.7071C8.10536 11.5196 8 11.2652 8 11V5C8 3.67392 8.52678 2.40215 9.46447 1.46447C10.4021 0.526784 11.6739 0 13 0H27C28.3261 0 29.5979 0.526784 30.5355 1.46447C31.4732 2.40215 32 3.67392 32 5ZM18.292 13.708L14.292 9.708C14.1989 9.61511 14.125 9.50476 14.0746 9.38327C14.0242 9.26178 13.9982 9.13153 13.9982 9C13.9982 8.86847 14.0242 8.73822 14.0746 8.61673C14.125 8.49524 14.1989 8.38489 14.292 8.292C14.3849 8.19887 14.4952 8.12499 14.6167 8.07457C14.7382 8.02416 14.8685 7.99821 15 7.99821C15.1315 7.99821 15.2618 8.02416 15.3833 8.07457C15.5048 8.12499 15.6151 8.19887 15.708 8.292L19 11.586L24.292 6.292C24.3849 6.19887 24.4952 6.12499 24.6167 6.07457C24.7382 6.02416 24.8685 5.99821 25 5.99821C25.1315 5.99821 25.2618 6.02416 25.3833 6.07457C25.5048 6.12499 25.6151 6.19887 25.708 6.292C25.8011 6.38489 25.875 6.49524 25.9254 6.61673C25.9758 6.73822 26.0018 6.86847 26.0018 7C26.0018 7.13153 25.9758 7.26178 25.9254 7.38327C25.875 7.50476 25.8011 7.61511 25.708 7.708L19.708 13.708C19.615 13.8008 19.5045 13.8744 19.3831 13.9245C19.2616 13.9746 19.1314 14.0002 19 14C18.8686 14.0002 18.7384 13.9746 18.6169 13.9245C18.4955 13.8744 18.385 13.8008 18.292 13.708Z" fill="black"/>
</g>
<defs>
<clipPath id="clip0_446_7945">
<rect width="32" height="32" fill="white"/>
</clipPath>
</defs>
</svg>
