<svg width="50" height="50" viewBox="0 0 50 50" fill="none" xmlns="http://www.w3.org/2000/svg">
<path d="M18.3808 15.8036C16.3237 15.834 14.5668 17.4908 14.5861 19.6609C14.6165 21.7179 16.2733 23.4749 18.4434 23.4555C20.5005 23.4252 22.2574 21.7684 22.2381 19.5983C22.2187 17.4281 20.4378 15.7734 18.3808 15.8036ZM28.0392 23.3516L21.9699 29.5006C21.722 29.705 21.372 29.7854 21.1675 29.5376L20.0217 28.4003C19.8173 28.1524 19.3541 28.222 19.2193 28.4373L12.6434 35.1081C12.3955 35.3125 12.352 35.7647 12.6804 35.9105C12.5564 36.0127 12.7826 36.0344 12.8957 36.0453L36.5405 35.8096C36.8796 35.8423 37.1384 35.5249 37.1711 35.1856C37.1819 35.0725 37.0797 34.9485 37.0906 34.8356L28.9545 23.3258C28.6262 23.1801 28.2871 23.1472 28.0392 23.3516Z" stroke="url(#paint0_linear_373_4587)" stroke-linecap="round" stroke-linejoin="round"/>
<path d="M43.4501 4.51417C44.6471 4.50558 45.7225 5.52916 45.5836 6.70883L45.1293 43.5805C45.1379 44.7776 44.1144 45.8529 42.9347 45.714L6.21046 45.2772C5.01343 45.2858 3.93807 44.2622 4.07696 43.0825L4.51382 6.35829C4.50523 5.16126 5.52881 4.0859 6.70848 4.22479L43.4501 4.51417Z" stroke="#B4B4B4" stroke-width="1.25" stroke-linecap="round" stroke-linejoin="round"/>
<defs>
<linearGradient id="paint0_linear_373_4587" x1="26.6147" y1="16.5727" x2="24.6326" y2="37.1745" gradientUnits="userSpaceOnUse">
<stop stop-color="#FF4916" stop-opacity="0.55"/>
<stop offset="1" stop-color="#FF4916" stop-opacity="0.36"/>
</linearGradient>
</defs>
</svg>
