<svg width="19" height="19" viewBox="0 0 19 19" fill="none" xmlns="http://www.w3.org/2000/svg">
<circle cx="9.5" cy="9.5" r="9.5" fill="#097C30"/>
<path d="M14.8808 5.0011L12.2344 5.35996C12.1467 5.37193 12.1095 5.49304 12.172 5.56332L12.9598 6.45002L9.95734 9.82932L8.60492 8.30863C8.52123 8.21443 8.38705 8.21593 8.30468 8.30863L4.03087 13.1204C4.0111 13.1429 4 13.1733 4 13.2049C4 13.2365 4.0111 13.2669 4.03087 13.2894L4.6287 13.9652C4.66989 14.0116 4.73764 14.0116 4.77882 13.9652L8.4548 9.82932L9.80589 11.35C9.88959 11.4427 10.0238 11.4427 10.1061 11.35L13.7117 7.29484L14.4995 8.18154C14.5136 8.19735 14.5314 8.20838 14.5508 8.21339C14.5702 8.21839 14.5905 8.21716 14.6093 8.20984C14.6281 8.20252 14.6448 8.1894 14.6573 8.17197C14.6698 8.15454 14.6777 8.13351 14.6802 8.11126L14.999 5.13268C15.0083 5.05642 14.9499 4.99063 14.8808 5.0011Z" fill="white"/>
</svg>
