<svg width="25" height="33" viewBox="0 0 25 33" fill="none" xmlns="http://www.w3.org/2000/svg">
<path d="M19.2875 11V11.65H19.9375H21.4712C22.7844 11.65 23.8885 12.7583 23.8885 14.1429V29.8571C23.8885 31.2417 22.7844 32.35 21.4712 32.35H3.06731C1.75409 32.35 0.65 31.2417 0.65 29.8571V14.1429C0.65 12.7583 1.75409 11.65 3.06731 11.65H4.60096H5.25096V11V7.85714C5.25096 3.86398 8.41015 0.65 12.2692 0.65C16.1283 0.65 19.2875 3.86398 19.2875 7.85714V11ZM17.0236 11.65H17.6736V11V7.85714C17.6736 4.82601 15.2656 2.33571 12.2692 2.33571C9.27288 2.33571 6.8649 4.82601 6.8649 7.85714V11V11.65H7.5149H17.0236ZM8.55192 22C8.55192 24.0726 10.2084 25.7929 12.2692 25.7929C14.3301 25.7929 15.9865 24.0726 15.9865 22C15.9865 19.9274 14.3301 18.2071 12.2692 18.2071C10.2084 18.2071 8.55192 19.9274 8.55192 22Z" fill="#232327" stroke="#232327" stroke-width="1.3"/>
<mask id="mask0_611_5635" style="mask-type:alpha" maskUnits="userSpaceOnUse" x="5" y="16" width="15" height="13">
<rect x="5.07617" y="16.0769" width="14.3846" height="12.6923" fill="#FF3901"/>
</mask>
<g mask="url(#mask0_611_5635)">
<circle cx="12" cy="22" r="4" fill="#FF3901"/>
<path d="M19.287 11V11.65H19.937H21.4707C22.7839 11.65 23.888 12.7583 23.888 14.1429V29.8571C23.888 31.2417 22.7839 32.35 21.4707 32.35H3.06682C1.7536 32.35 0.649512 31.2417 0.649512 29.8571V14.1429C0.649512 12.7583 1.7536 11.65 3.06682 11.65H4.60047H5.25047V11V7.85714C5.25047 3.86398 8.40966 0.65 12.2687 0.65C16.1278 0.65 19.287 3.86398 19.287 7.85714V11ZM17.0231 11.65H17.6731V11V7.85714C17.6731 4.82601 15.2651 2.33571 12.2687 2.33571C9.27239 2.33571 6.86442 4.82601 6.86442 7.85714V11V11.65H7.51442H17.0231ZM8.55144 22C8.55144 24.0726 10.2079 25.7929 12.2687 25.7929C14.3296 25.7929 15.986 24.0726 15.986 22C15.986 19.9274 14.3296 18.2071 12.2687 18.2071C10.2079 18.2071 8.55144 19.9274 8.55144 22Z" stroke="#FF3901" stroke-width="1.3"/>
</g>
</svg>
