<svg width="114" height="115" viewBox="0 0 114 115" fill="none" xmlns="http://www.w3.org/2000/svg">
<g filter="url(#filter0_d_67_250)">
<path d="M69 52.0652C69 58.9687 63.9287 70 57 70C50.0713 70 45 58.9687 45 52.0652C45 45.1616 50.0713 45 57 45C63.9287 45 69 45.1616 69 52.0652Z" fill="#097C30"/>
<path d="M68.5 52.0652C68.5 55.4163 67.2622 59.8133 65.1675 63.3675C63.0585 66.9461 60.1887 69.5 57 69.5C53.8113 69.5 50.9415 66.9461 48.8325 63.3675C46.7378 59.8133 45.5 55.4163 45.5 52.0652C45.5 50.3974 45.8066 49.1891 46.3309 48.3035C46.8508 47.4253 47.6098 46.822 48.5967 46.4042C49.5935 45.9822 50.8171 45.7524 52.2442 45.6313C53.6698 45.5104 55.2654 45.5 57 45.5C58.7346 45.5 60.3302 45.5104 61.7558 45.6313C63.1829 45.7524 64.4065 45.9822 65.4033 46.4042C66.3902 46.822 67.1492 47.4253 67.6691 48.3035C68.1934 49.1891 68.5 50.3974 68.5 52.0652Z" stroke="#E6E6E6"/>
</g>
<path d="M53 57.1176L56 60L62 53" stroke="white" stroke-width="2" stroke-linecap="round"/>
<defs>
<filter id="filter0_d_67_250" x="0" y="0" width="114" height="115" filterUnits="userSpaceOnUse" color-interpolation-filters="sRGB">
<feFlood flood-opacity="0" result="BackgroundImageFix"/>
<feColorMatrix in="SourceAlpha" type="matrix" values="0 0 0 0 0 0 0 0 0 0 0 0 0 0 0 0 0 0 127 0" result="hardAlpha"/>
<feOffset/>
<feGaussianBlur stdDeviation="22.5"/>
<feComposite in2="hardAlpha" operator="out"/>
<feColorMatrix type="matrix" values="0 0 0 0 0.584293 0 0 0 0 0.584293 0 0 0 0 0.584293 0 0 0 0.12 0"/>
<feBlend mode="normal" in2="BackgroundImageFix" result="effect1_dropShadow_67_250"/>
<feBlend mode="normal" in="SourceGraphic" in2="effect1_dropShadow_67_250" result="shape"/>
</filter>
</defs>
</svg>
