<svg width="29" height="32" viewBox="0 0 29 32" fill="none" xmlns="http://www.w3.org/2000/svg">
<path d="M14.1816 15.3246C18.1372 15.3246 21.3439 12.1179 21.3439 8.16229C21.3439 4.20667 18.1372 1 14.1816 1C10.226 1 7.01929 4.20667 7.01929 8.16229C7.01929 12.1179 10.226 15.3246 14.1816 15.3246Z" fill="#FF3901" stroke="#FF3901" stroke-width="1.4025"/>
<path d="M28.3186 29.4836C28.6039 30.7859 27.5046 31.9998 25.9883 31.9998H2.37549C0.859194 31.9998 -0.240089 30.7859 0.0452101 29.4836C0.632819 26.8013 1.9769 24.319 3.94879 22.3471C6.66278 19.6331 10.3438 18.1084 14.1819 18.1084C18.0201 18.1084 21.701 19.6331 24.415 22.3471C26.3869 24.319 27.731 26.8013 28.3186 29.4836Z" fill="#232327"/>
</svg>
